#VRML V2.0 utf8
# Mechanical placeholder. No selected capacity or commercial cell.
Shape { appearance Appearance { material Material { diffuseColor 0.82 0.57 0.08 } } geometry IndexedFaceSet { coord Coordinate { point [ -11.811 -7.87402 -3.38583, 11.811 -7.87402 -3.38583, 11.811 7.87402 -3.38583, -11.811 7.87402 -3.38583, -11.811 -7.87402 -1.02362, 11.811 -7.87402 -1.02362, 11.811 7.87402 -1.02362, -11.811 7.87402 -1.02362 ] } coordIndex [ 0,3,2,1,-1,4,5,6,7,-1,0,1,5,4,-1,1,2,6,5,-1,2,3,7,6,-1,3,0,4,7,-1 ] } }
Shape { appearance Appearance { material Material { diffuseColor 0.72 0.75 0.78 } } geometry IndexedFaceSet { coord Coordinate { point [ -11.2205 -7.28346 -3.40551, 11.2205 -7.28346 -3.40551, 11.2205 7.28346 -3.40551, -11.2205 7.28346 -3.40551, -11.2205 -7.28346 -3.35827, 11.2205 -7.28346 -3.35827, 11.2205 7.28346 -3.35827, -11.2205 7.28346 -3.35827 ] } coordIndex [ 0,3,2,1,-1,4,5,6,7,-1,0,1,5,4,-1,1,2,6,5,-1,2,3,7,6,-1,3,0,4,7,-1 ] } }
Shape { appearance Appearance { material Material { diffuseColor 0.72 0.75 0.78 } } geometry IndexedFaceSet { coord Coordinate { point [ -11.2205 -7.28346 -1.02362, 11.2205 -7.28346 -1.02362, 11.2205 7.28346 -1.02362, -11.2205 7.28346 -1.02362, -11.2205 -7.28346 -0.976378, 11.2205 -7.28346 -0.976378, 11.2205 7.28346 -0.976378, -11.2205 7.28346 -0.976378 ] } coordIndex [ 0,3,2,1,-1,4,5,6,7,-1,0,1,5,4,-1,1,2,6,5,-1,2,3,7,6,-1,3,0,4,7,-1 ] } }
Shape { appearance Appearance { material Material { diffuseColor 0.12 0.16 0.20 } } geometry IndexedFaceSet { coord Coordinate { point [ -7.87402 -4.33071 -3.46457, 7.87402 -4.33071 -3.46457, 7.87402 4.33071 -3.46457, -7.87402 4.33071 -3.46457, -7.87402 -4.33071 -3.41732, 7.87402 -4.33071 -3.41732, 7.87402 4.33071 -3.41732, -7.87402 4.33071 -3.41732 ] } coordIndex [ 0,3,2,1,-1,4,5,6,7,-1,0,1,5,4,-1,1,2,6,5,-1,2,3,7,6,-1,3,0,4,7,-1 ] } }
Shape { appearance Appearance { material Material { diffuseColor 0.85 0.04 0.04 } } geometry IndexedFaceSet { coord Coordinate { point [ -0.393701 -8.66142 -2.28346, -0.0393701 -8.66142 -2.28346, -0.0393701 -7.48031 -2.28346, -0.393701 -7.48031 -2.28346, -0.393701 -8.66142 -1.92913, -0.0393701 -8.66142 -1.92913, -0.0393701 -7.48031 -1.92913, -0.393701 -7.48031 -1.92913 ] } coordIndex [ 0,3,2,1,-1,4,5,6,7,-1,0,1,5,4,-1,1,2,6,5,-1,2,3,7,6,-1,3,0,4,7,-1 ] } }
Shape { appearance Appearance { material Material { diffuseColor 0.03 0.03 0.03 } } geometry IndexedFaceSet { coord Coordinate { point [ 0.393701 -8.66142 -2.28346, 0.748031 -8.66142 -2.28346, 0.748031 -7.48031 -2.28346, 0.393701 -7.48031 -2.28346, 0.393701 -8.66142 -1.92913, 0.748031 -8.66142 -1.92913, 0.748031 -7.48031 -1.92913, 0.393701 -7.48031 -1.92913 ] } coordIndex [ 0,3,2,1,-1,4,5,6,7,-1,0,1,5,4,-1,1,2,6,5,-1,2,3,7,6,-1,3,0,4,7,-1 ] } }
