#VRML V2.0 utf8
# Simplified candidate envelope; not a manufacturer CAD model.
Shape { appearance Appearance { material Material { diffuseColor 0.65 0.67 0.69 } } geometry IndexedFaceSet { coord Coordinate { point [ -4.64567 -3.91732 0.019685, 4.64567 -3.91732 0.019685, 4.64567 3.91732 0.019685, -4.64567 3.91732 0.019685, -4.64567 -3.91732 0.885827, 4.64567 -3.91732 0.885827, 4.64567 3.91732 0.885827, -4.64567 3.91732 0.885827 ] } coordIndex [ 0,3,2,1,-1,4,5,6,7,-1,0,1,5,4,-1,1,2,6,5,-1,2,3,7,6,-1,3,0,4,7,-1 ] } }